<?xml version="1.0" encoding="UTF-8" standalone="no"?>
<!-- Created with Inkscape (http://www.inkscape.org/) -->

<svg
   version="1.1"
   id="svg1"
   width="305"
   height="305"
   viewBox="0 0 305 305"
   sodipodi:docname="logotipo2.svg"
   inkscape:version="1.4 (86a8ad7, 2024-10-11)"
   xmlns:inkscape="http://www.inkscape.org/namespaces/inkscape"
   xmlns:sodipodi="http://sodipodi.sourceforge.net/DTD/sodipodi-0.dtd"
   xmlns="http://www.w3.org/2000/svg"
   xmlns:svg="http://www.w3.org/2000/svg">
  <defs
     id="defs1" />
  <sodipodi:namedview
     id="namedview1"
     pagecolor="#ffffff"
     bordercolor="#000000"
     borderopacity="0.25"
     inkscape:showpageshadow="2"
     inkscape:pageopacity="0.0"
     inkscape:pagecheckerboard="0"
     inkscape:deskcolor="#d1d1d1"
     showgrid="false"
     inkscape:zoom="0.67916667"
     inkscape:cx="421.10429"
     inkscape:cy="249.57055"
     inkscape:window-width="1920"
     inkscape:window-height="1017"
     inkscape:window-x="-8"
     inkscape:window-y="-8"
     inkscape:window-maximized="1"
     inkscape:current-layer="g1"
     showguides="true"
     inkscape:lockguides="false" />
  <g
     inkscape:groupmode="layer"
     inkscape:label="Image"
     id="g1">
    <g
       id="g65"
       transform="translate(-449.07976,-449.69714)">
      <path
         style="fill:#c8edef"
         d="m 586.47239,750.83306 c -1.375,-0.20184 -5.875,-0.86213 -10,-1.46732 -9.74731,-1.43006 -27.39173,-6.80088 -37.5,-11.41469 -41.11543,-18.76671 -72.04608,-55.80815 -83.03739,-99.44258 -7.61652,-30.23686 -5.65288,-61.95837 5.66632,-91.53608 18.07138,-47.22157 58.75365,-81.50002 109.98383,-92.67122 8.80872,-1.92082 13.35062,-2.26504 29.88724,-2.26504 16.57014,0 21.07762,0.34291 30,2.28228 71.03876,15.44093 119.96508,75.45592 119.96508,147.15398 0,40.73148 -15.29949,77.55285 -44.09434,106.12209 -10.07963,10.00065 -17.38761,15.80633 -28.02796,22.26624 -15.98492,9.70467 -36.94527,17.16889 -56.48068,20.1134 -8.82105,1.32957 -29.78268,1.82472 -36.3621,0.85894 z"
         id="path70" />
      <path
         style="fill:#89d9dd"
         d="m 585.47239,750.43741 c -42.06084,-5.15258 -78.50718,-25.67373 -102.94807,-57.96502 -14.3335,-18.93742 -23.09188,-38.21645 -28.16631,-62 -3.22476,-15.11423 -3.22816,-42.85509 -0.007,-58 5.6389,-26.51331 17.62242,-50.77152 34.49224,-69.82254 37.25361,-42.07035 93.39159,-59.75961 147.83011,-46.58176 14.08179,3.40876 22.45048,6.54677 34.79914,13.04863 51.32327,27.02293 82.72462,82.09432 79.64212,139.67562 -2.95254,55.15371 -34.31318,102.53503 -84.47063,127.62272 -8.65452,4.32881 -24.60879,9.52652 -36.84864,12.00484 -11.80258,2.38979 -33.29718,3.36819 -44.32285,2.01751 z"
         id="path69" />
      <path
         style="fill:#3ec0c8"
         d="m 589.7852,750.43319 c -41.40074,-3.39871 -79.16754,-23.31481 -104.87941,-55.30755 -31.67366,-39.41085 -41.3382,-92.90868 -25.42881,-140.76058 7.39304,-22.23661 19.24287,-41.2375 36.44672,-58.44136 23.70376,-23.70375 49.56923,-36.71047 84.54869,-42.51618 9.55914,-1.58658 32.26836,-1.57908 42,0.0139 51.74252,8.46958 90.69701,36.96534 113.53302,83.05101 22.01748,44.43379 19.46775,99.98773 -6.54115,142.51958 -25.42906,41.58366 -67.14557,67.03341 -117.13153,71.45779 -6.24819,0.55304 -11.81034,0.94525 -12.36034,0.87158 -0.55,-0.0737 -5.13424,-0.47334 -10.18719,-0.88815 z"
         id="path68" />
      <path
         style="fill:#44b1bc"
         d="m 512.47239,689.9599 c 0,-0.28188 3.36061,-7.22251 7.46802,-15.42364 6.94811,-13.87308 8.09679,-15.54232 16.5,-23.9776 4.96759,-4.98655 9.03198,-9.37899 9.03198,-9.76097 0,-0.38197 -4.5,-7.52515 -10,-15.87372 -5.5,-8.34857 -9.98317,-16.028 -9.9626,-17.0654 0.0206,-1.0374 4.54211,-8.07368 10.04787,-15.63618 7.63939,-10.49315 10.53208,-13.74839 12.21261,-13.7432 1.54053,0.005 6.40819,4.48519 16.20212,14.91323 l 14,14.90642 3.86986,-3.79779 3.86986,-3.79779 -4.03979,-8.07126 c -7.74002,-15.46408 -8.22314,-28.95872 -1.50827,-42.12933 4.65303,-9.1265 10.60411,-14.07618 19.97322,-16.61228 11.66586,-3.1578 27.75187,-0.55571 38.56525,6.23836 2.05157,1.289 4.07657,2.34158 4.5,2.33906 0.42343,-0.003 4.28285,-3.38746 8.5765,-7.5221 6.7749,-6.52401 9.79566,-8.5137 22.85688,-15.05521 8.27764,-4.14572 15.25406,-7.33387 15.50316,-7.08477 0.2491,0.2491 -2.99447,7.33617 -7.20793,15.74905 -7.14145,14.25911 -8.23852,15.86353 -16.1815,23.66471 l -8.52065,8.36856 2.14742,6.5415 c 4.20929,12.82238 3.68448,24.25719 -1.59264,34.70112 -8.43293,16.6896 -30.10613,23.41111 -50.50071,15.66178 l -5.25767,-1.99776 -4.27649,4.19706 c -2.35208,2.30838 -4.25515,4.66587 -4.22905,5.23885 0.0261,0.57299 4.52609,5.74178 10,11.4862 5.4739,5.74442 9.95255,11.28591 9.95255,12.31441 0,2.5248 -8.05587,11.74008 -10.26357,11.74069 -0.96996,2.7e-4 -2.63556,-0.54408 -3.70133,-1.20966 -1.37984,-0.86173 -2.74357,-0.92381 -4.73643,-0.21562 -2.394,0.85074 -2.77287,1.49565 -2.62024,4.46016 0.0981,1.90609 0.44811,4.81561 0.77773,6.46561 0.53753,2.69071 -0.12864,3.74746 -6.46158,10.25 -6.90355,7.08844 -8.36014,7.98039 -10.58977,6.48469 -0.60235,-0.40408 -4.90275,-6.4516 -9.55644,-13.43893 l -8.46124,-12.70424 -7.94357,7.54128 c -6.77726,6.43405 -10.10735,8.62967 -22.68106,14.95424 -14.73026,7.40932 -15.7625,7.86121 -15.7625,6.90047 z m 70.28741,-17.26561 c 2.47946,-2.588 2.58141,-3.03938 1.48981,-6.59613 -1.04342,-3.39976 -0.91267,-4.30647 1.19349,-8.27662 3.16895,-5.97353 9.592,-9.2263 14.51938,-7.35292 1.66155,0.63173 2.68299,0.50015 3.46893,-0.44685 0.87653,-1.05615 -4.79838,-7.59821 -26.6271,-30.69579 -15.25757,-16.14447 -27.98649,-29.45253 -28.28648,-29.57345 -0.76836,-0.30972 -13.59717,17.84417 -13.30818,18.83223 0.44292,1.51432 43.75924,66.87053 44.32565,66.87911 0.3096,0.005 1.76063,-1.24162 3.2245,-2.76958 z M 560.09575,613.9529 c -2.20163,-2.20163 -0.40382,-5.73225 2.6943,-5.29119 1.68658,0.2401 2.18234,0.98909 2.18234,3.29699 0,3.49298 -2.39746,4.47337 -4.87664,1.9942 z m -15.87336,-2.56061 c -2.35644,-1.3725 -2.23645,-6.16969 0.20971,-8.38343 4.51231,-4.08359 10.91997,1.94584 7.54381,7.09851 -1.634,2.4938 -4.78224,3.01553 -7.75352,1.28492 z m 1.5,49.61532 c 4.2625,-4.2146 7.75,-7.99816 7.75,-8.40793 0,-0.40976 -0.64951,-1.61854 -1.44335,-2.68616 -1.37528,-1.84957 -1.80344,-1.58737 -9.07731,5.55887 -4.19868,4.125 -8.74064,9.65505 -10.09326,12.289 l -2.45929,4.789 3.7866,-1.93994 c 2.08264,-1.06697 7.27411,-5.38825 11.53661,-9.60284 z m 46.6295,-46.05462 c 1.97824,-2.09731 3.0865,-4.12683 2.74273,-5.02268 -1.14344,-2.97974 -3.50267,-2.64415 -7.16619,1.01938 -3.51435,3.51435 -3.58511,3.7226 -1.89824,5.58656 2.30882,2.55122 2.45695,2.51412 6.3217,-1.58326 z m 46.33874,-5.26491 c 5.85744,-2.6074 12.11876,-9.70349 14.26587,-16.16783 1.29011,-3.88415 1.63979,-7.34668 1.31265,-12.9978 -1.15873,-20.01641 -16.448,-36.02616 -37.21328,-38.96688 -20.05192,-2.83971 -32.41716,7.63383 -32.53958,27.56149 -0.0787,12.80306 6.21171,26.74002 15.14009,33.54442 4.40775,3.35918 12.91052,7.61398 17.56194,8.78801 5.40771,1.36493 16.49166,0.45569 21.47231,-1.76141 z m -43.71824,-38.16971 c -7.4384,-3.07673 -9.51403,-13.40559 -4.11608,-20.48267 2.8362,-3.71845 9.33431,-7.49822 12.96495,-7.54135 3.21568,-0.0382 8.1761,2.90386 9.94507,5.89849 2.46289,4.16934 2.20283,11.04663 -0.57351,15.16644 -4.14082,6.14457 -12.48485,9.33148 -18.22043,6.95909 z m 10.11003,-10.5651 c 3.65491,-3.65491 3.02173,-7.87084 -1.24439,-8.28561 -2.42116,-0.23539 -3.61577,0.30727 -5.25,2.38486 -2.06896,2.63026 -2.778,6.42418 -1.44897,7.75321 1.47633,1.47633 5.56902,0.52188 7.94336,-1.85246 z m 56.03924,-15.33195 c 3.9321,-3.75854 8.11327,-8.72331 9.29149,-11.03281 l 2.14222,-4.1991 -4.08045,2.0817 c -4.53193,2.31201 -18.00253,14.61127 -18.00253,16.43711 0,1.19675 1.9699,3.57096 2.95,3.55549 0.3025,-0.005 3.76717,-3.08385 7.69927,-6.84239 z"
         id="path67" />
      <path
         style="fill:#388093"
         d="m 520.04774,675.23444 c 7.16324,-14.38509 8.14047,-15.80865 17.00709,-24.77471 l 9.40715,-9.51267 -10.49479,-15.72322 c -5.77214,-8.64777 -10.4948,-16.3858 -10.4948,-17.19563 0,-2.28837 19.25131,-28.40869 21.49979,-29.17108 1.63716,-0.55512 4.67712,2.10859 16.7644,14.6895 l 14.7646,15.36756 4.0285,-4.0285 4.02851,-4.02851 -3.3822,-5.6167 c -5.15776,-8.56531 -7.11198,-15.83367 -7.06262,-26.26809 0.0322,-6.80141 0.57795,-10.37951 2.23415,-14.64709 2.58808,-6.66881 8.67532,-13.93503 14.47377,-17.27708 11.96061,-6.89373 31.68356,-5.39234 46.06766,3.50685 l 4.91655,3.04179 8.08345,-7.97349 c 7.29674,-7.1975 9.56878,-8.71324 23.34549,-15.57453 l 15.26204,-7.60103 -7.92999,15.76229 c -7.36608,14.64142 -8.52679,16.35176 -16.32253,24.05169 l -8.39255,8.2894 2.44722,7.2106 c 4.84369,14.27167 2.67422,30.09283 -5.42376,39.5535 -11.38649,13.30255 -30.08354,17.00453 -47.69463,9.44345 l -3.79216,-1.62812 -4.91896,4.845 -4.91896,4.84499 10.56817,11.33128 c 12.08896,12.96189 12.14006,13.1717 4.93056,20.24614 -4.15416,4.07634 -4.71377,4.33285 -7.09036,3.25 -3.31425,-1.51007 -6.76184,-1.49993 -8.28614,0.0244 -1.45215,1.45216 -1.59636,7.437 -0.2,8.3 2.37618,1.46856 0.52856,5.03162 -6.30525,12.15935 -6.41339,6.68923 -7.55113,7.48788 -9.3191,6.54169 -1.10762,-0.59278 -5.75828,-6.73051 -10.33482,-13.63941 -4.57654,-6.90889 -8.60751,-12.56163 -8.95772,-12.56163 -0.35021,0 -3.77468,3.18779 -7.60993,7.08397 -6.18487,6.28313 -8.75508,7.98021 -22.73547,15.01204 l -15.76229,7.92808 z m 64.78838,-8.26205 c -0.3206,-1.65 -0.58688,-3.225 -0.59174,-3.5 -0.068,-3.84958 0.84811,-5.85539 4.20941,-9.21669 3.8502,-3.8502 4.1715,-3.9699 9.75,-3.63236 4.7188,0.28553 5.7686,0.0639 5.7686,-1.21774 0,-1.43649 -54.23718,-59.89583 -55.59404,-59.92183 -0.32672,-0.006 -3.59565,4.223 -7.26429,9.39835 l -6.67025,9.40973 22.59978,34.2001 22.59977,34.2001 2.88784,-3.35983 c 2.27997,-2.65261 2.76514,-3.9913 2.30492,-6.35983 z m -24.11373,-52.16666 c -1.83925,-0.7357 -1.52178,-5.01507 0.42754,-5.76309 2.44967,-0.94003 5.09103,1.98777 3.73407,4.139 -1.19634,1.89659 -2.35243,2.34776 -4.16161,1.62409 z m -16.59501,-4.16208 c -2.38991,-2.64082 -2.03797,-5.87421 0.84501,-7.76321 2.31587,-1.51742 2.68413,-1.51742 5,0 2.87448,1.88342 3.30936,5.63974 0.92857,8.02052 -2.0879,2.08791 -4.74244,1.98707 -6.77358,-0.25731 z m 3.07608,49.6516 7.23106,-7.33176 -1.78201,-2.71653 -1.78202,-2.71652 -8.10046,8.22098 c -4.45526,4.52153 -9.06238,10.14995 -10.23806,12.50758 l -2.13758,4.28661 4.789,-2.4593 c 2.63395,-1.35261 8.04298,-5.75859 12.02007,-9.79106 z m 47.054,-51.55164 -2.19277,-2.3341 -3.95877,3.95877 c -3.9521,3.9521 -3.95581,3.9633 -2.19909,6.64439 l 1.75968,2.68562 4.39187,-4.31029 4.39186,-4.31028 z m 46.46888,-0.0111 c 5.88844,-3.28702 11.04648,-9.9558 12.84164,-16.60282 0.61752,-2.28654 0.93077,-7.75734 0.69609,-12.15734 -1.05533,-19.78693 -15.69225,-35.26672 -36.51846,-38.62136 -20.36727,-3.28071 -33.33824,7.42201 -33.47518,27.62136 -0.0787,11.60873 3.44496,20.97617 11.19671,29.76581 11.37456,12.89751 31.92776,17.43617 45.2592,9.99435 z m -45.16028,-37.5554 c -7.6862,-2.71846 -9.89957,-11.86637 -4.75283,-19.64361 3.25878,-4.92435 7.77053,-7.38253 13.56237,-7.38932 3.7927,-0.004 4.86725,0.50119 7.75,3.64682 2.66558,2.90865 3.34679,4.49232 3.34679,7.78051 0,10.58 -10.60631,18.89483 -19.90633,15.6056 z m 9.97803,-10.52304 c 2.9131,-3.7034 2.22858,-7.5901 -1.41013,-8.00667 -3.1374,-0.35919 -6.37034,1.96333 -7.74828,5.56627 -2.34402,6.129 4.76656,8.02373 9.15841,2.4404 z m 55.60379,-14.43172 c 3.91899,-3.9875 8.0889,-9.18117 9.26646,-11.54149 l 2.14103,-4.29149 -4.29149,2.14103 c -2.36032,1.17757 -7.52234,5.31604 -11.47117,9.19661 -7.07228,6.95005 -7.15455,7.09019 -5.5,9.36904 0.92383,1.2724 1.91595,2.32759 2.20471,2.34488 0.28877,0.0173 3.73147,-3.23108 7.65046,-7.21858 z"
         id="path66" />
      <path
         style="fill:#354f6b"
         d="m 521.0541,674.22239 c 7.08187,-14.22111 8.20188,-15.86487 16.60062,-24.36353 l 9.00638,-9.11354 -10.68412,-16.03448 c -9.83367,-14.75817 -10.58577,-16.2217 -9.44864,-18.38647 2.54683,-4.84841 19.08273,-26.69121 20.66642,-27.29893 1.21012,-0.46437 5.57307,3.43519 16.39887,14.65713 l 14.75008,15.28982 4.13559,-4.08595 4.13559,-4.08596 -3.49561,-6.41404 c -5.33388,-9.78705 -6.94278,-16.60308 -6.47011,-27.41027 0.34536,-7.89647 0.8657,-10.14775 3.65495,-15.81354 6.02285,-12.23414 15.7919,-17.81756 31.1013,-17.7757 9.98856,0.0273 16.971,1.83805 25.97597,6.73627 l 6.409,3.48614 7.591,-7.46688 c 6.58503,-6.47735 9.5699,-8.47425 22.52366,-15.06847 8.21296,-4.18088 15.07828,-7.6016 15.25626,-7.6016 0.17798,0 -3.09397,6.8625 -7.27099,15.25 -6.95696,13.96961 -8.30032,15.9648 -16.00004,23.76353 l -8.40544,8.51353 2.20038,5.48647 c 3.21041,8.00491 3.23593,25.37393 0.0475,32.31597 -8.56775,18.65409 -28.59213,26.05152 -50.04959,18.4894 l -6.28929,-2.2165 -5.06092,5.06091 -5.06091,5.06092 10.60021,11.21652 c 5.83011,6.16908 10.6002,11.68118 10.6002,12.2491 0,0.56793 -1.8754,3.27255 -4.16755,6.01028 -4.32412,5.16468 -5.01633,5.36535 -11.4357,3.31511 -1.47388,-0.47074 -2.97009,0.0741 -5,1.82083 -3.06165,2.63447 -3.06262,2.39767 0.0402,9.79145 0.98323,2.34295 -11.85649,16.87248 -14.91018,16.87248 -1.77285,0 -4.11223,-2.82053 -11.13557,-13.42584 l -8.89123,-13.42585 -8,7.79673 c -6.99401,6.8163 -9.79024,8.6932 -22.23667,14.92584 -7.83017,3.92102 -14.47048,7.12912 -14.75626,7.12912 -0.28577,0 2.89782,-6.8625 7.07464,-15.25 z m 62.21459,-1.03983 c 2.95656,-3.0504 3.10292,-3.51692 2.01091,-6.40998 -0.90858,-2.40711 -0.90113,-4.04335 0.0326,-7.15994 1.69576,-5.65994 6.12488,-8.63695 12.87134,-8.65143 2.86615,-0.006 5.6602,-0.4602 6.20901,-1.009 0.66377,-0.66378 -8.55668,-11.12887 -27.54151,-31.25925 l -28.53934,-30.26142 -7.01683,9.64515 c -5.39553,7.41655 -6.82109,10.06127 -6.16967,11.4461 1.42748,3.03462 43.80985,66.93263 44.401,66.94139 0.3046,0.005 1.98871,-1.47221 3.74246,-3.28162 z m -23.43355,-60.20725 c -0.34557,-0.90054 -0.16636,-2.09931 0.39825,-2.66391 1.6301,-1.63011 4.739,-0.53147 4.739,1.67469 0,2.54367 -4.22832,3.35787 -5.13725,0.98922 z m -14.02481,-1.55633 c -3.95135,-1.49328 -4.11804,-7.24683 -0.24556,-8.47591 2.94844,-0.93579 5.8413,0.41691 6.49944,3.03914 1.00168,3.99101 -2.35589,6.90989 -6.25388,5.43677 z m -10.5481,59.12842 c 2.04059,-1.05874 7.24441,-5.50322 11.56405,-9.87662 l 7.85389,-7.95164 -1.76392,-2.69209 -1.76393,-2.69209 -8.41442,8.31871 c -4.62793,4.5753 -9.28091,9.9883 -10.33996,12.02888 -2.90779,5.60277 -2.73868,5.77191 2.86429,2.86485 z m 59.1406,-61.95368 -2.43044,-1.99147 -4.23892,4.13241 -4.23893,4.13241 2.19353,2.3349 2.19353,2.3349 4.47583,-4.47583 4.47584,-4.47584 z m 38.52305,3.42709 c 20.22541,-3.65982 28.55521,-28.22582 16.85807,-49.71731 -3.05244,-5.60835 -9.83286,-12.29441 -16.32618,-16.09901 -8.8052,-5.15918 -23.31062,-7.21297 -32.17853,-4.55608 -5.65538,1.69439 -12.12781,7.81803 -14.78023,13.98374 -10.0171,23.28537 7.71899,53.14058 33.68047,56.69444 6.10719,0.83601 6.4868,0.8269 12.7464,-0.30578 z m -41.05349,-43.94842 c -2.84842,-2.84842 -3.4,-4.12226 -3.4,-7.85211 0,-5.24497 2.83402,-10.03551 8.0238,-13.56321 4.77615,-3.24654 12.29916,-2.6731 15.62279,1.19084 3.58622,4.16923 3.9769,8.79505 1.21325,14.36528 -3.00945,6.06562 -7.70287,9.2592 -13.60772,9.2592 -3.72986,0 -5.00369,-0.55157 -7.85212,-3.4 z m 11.54125,-5.06961 c 3.75044,-1.93943 5.42477,-6.56281 3.41553,-9.43141 -2.03855,-2.91044 -4.9873,-2.6223 -8.4337,0.8241 -3.04644,3.04644 -3.77909,6.82091 -1.72308,8.87692 1.58227,1.58227 3.29236,1.51388 6.74125,-0.26961 z m 58.22901,-17.28039 c 7.00791,-7.12434 11.66901,-13.74406 10.50038,-14.91269 -1.19826,-1.19826 -8.82073,4.17039 -15.42227,10.86221 -6.99325,7.08888 -7.19611,7.43008 -5.6933,9.57564 0.85709,1.22367 1.88088,2.22484 2.2751,2.22484 0.39421,0 4.14726,-3.4875 8.34009,-7.75 z"
         id="path65" />
    </g>
  </g>
</svg>
